<svg width="801" height="454" viewBox="0 0 801 454" fill="none" xmlns="http://www.w3.org/2000/svg">
<g clip-path="url(#clip0_1_2)">
<path d="M49.66 392.77H46.78V424.02H49.66V392.77Z" fill="black" stroke="#E19B77" stroke-width="0.75" stroke-miterlimit="10"/>
<path d="M70.03 373.89C70.03 369.61 66.56 366.14 62.28 366.14C61.29 366.14 60.35 366.33 59.48 366.67C56.65 364.2 52.96 362.7 48.91 362.7C47.45 362.7 46.05 362.91 44.71 363.27C43.97 362.5 42.94 362.01 41.78 362.01C39.54 362.01 37.72 363.83 37.72 366.07C37.72 366.42 37.78 366.76 37.86 367.09C37.45 367.48 37.05 367.89 36.68 368.32C36.02 367.85 35.21 367.57 34.34 367.57C32.1 367.57 30.28 369.39 30.28 371.63C30.28 372.13 30.38 372.6 30.54 373.03C28.39 374.16 26.92 376.41 26.92 379.01C26.92 382.47 29.52 385.32 32.88 385.71C32.84 385.93 32.81 386.16 32.81 386.39C32.81 388.63 34.63 390.45 36.87 390.45C37.14 390.45 37.41 390.42 37.67 390.37C40.57 393.19 44.53 394.94 48.9 394.94C52.43 394.94 55.68 393.79 58.34 391.87C59.02 392.38 59.86 392.7 60.78 392.7C63.02 392.7 64.84 390.88 64.84 388.64C64.84 387.45 64.32 386.38 63.5 385.64C63.56 385.52 63.62 385.4 63.68 385.27C64.11 385.41 64.56 385.51 65.03 385.51C67.38 385.51 69.28 383.61 69.28 381.26C69.28 380.28 68.93 379.38 68.37 378.66C69.41 377.34 70.03 375.68 70.03 373.88V373.89Z" fill="black" stroke="#E19B77" stroke-width="0.75" stroke-miterlimit="10"/>
<path d="M715.48 422.39H680.52V237.86L715.48 257.32V422.39Z" fill="black" stroke="#E19B77" stroke-width="0.75" stroke-miterlimit="10"/>
<path d="M517.68 426.69H542.7V242.16L517.68 261.62V426.69Z" fill="black" stroke="#E19B77" stroke-width="0.75" stroke-miterlimit="10"/>
<path d="M394.42 446.64H419.44V262.11L394.42 281.58V446.64Z" fill="black" stroke="#E19B77" stroke-width="0.75" stroke-miterlimit="10"/>
<path d="M205.12 218.05H146.45V422.39H205.12V218.05Z" fill="black" stroke="#E19B77" stroke-width="0.75" stroke-miterlimit="10"/>
<path d="M205.11 233.46V228.55H178.73V233.46H205.11Z" fill="black" stroke="#E19B77" stroke-width="0.75" stroke-miterlimit="10"/>
<path d="M205.12 241.78V236.87H178.74V241.78H205.12Z" fill="black" stroke="#E19B77" stroke-width="0.75" stroke-miterlimit="10"/>
<path d="M205.12 250.09V245.18H178.74V250.09H205.12Z" fill="black" stroke="#E19B77" stroke-width="0.75" stroke-miterlimit="10"/>
<path d="M172.83 233.47V228.56H146.45V233.47H172.83Z" fill="black" stroke="#E19B77" stroke-width="0.75" stroke-miterlimit="10"/>
<path d="M172.83 241.78V236.87H146.45V241.78H172.83Z" fill="black" stroke="#E19B77" stroke-width="0.75" stroke-miterlimit="10"/>
<path d="M172.83 250.09V245.18H146.45V250.09H172.83Z" fill="black" stroke="#E19B77" stroke-width="0.75" stroke-miterlimit="10"/>
<path d="M205.12 260.74V255.83H178.74V260.74H205.12Z" fill="black" stroke="#E19B77" stroke-width="0.75" stroke-miterlimit="10"/>
<path d="M205.11 269.05V264.14H178.73V269.05H205.11Z" fill="black" stroke="#E19B77" stroke-width="0.75" stroke-miterlimit="10"/>
<path d="M205.11 277.36V272.45H178.73V277.36H205.11Z" fill="black" stroke="#E19B77" stroke-width="0.75" stroke-miterlimit="10"/>
<path d="M172.83 260.74V255.83H146.45V260.74H172.83Z" fill="black" stroke="#E19B77" stroke-width="0.75" stroke-miterlimit="10"/>
<path d="M172.83 269.06V264.15H146.45V269.06H172.83Z" fill="black" stroke="#E19B77" stroke-width="0.75" stroke-miterlimit="10"/>
<path d="M172.83 277.37V272.46H146.45V277.37H172.83Z" fill="black" stroke="#E19B77" stroke-width="0.75" stroke-miterlimit="10"/>
<path d="M205.11 288.01V283.1H178.73V288.01H205.11Z" fill="black" stroke="#E19B77" stroke-width="0.75" stroke-miterlimit="10"/>
<path d="M205.12 296.33V291.42H178.74V296.33H205.12Z" fill="black" stroke="#E19B77" stroke-width="0.75" stroke-miterlimit="10"/>
<path d="M205.12 304.64V299.73H178.74V304.64H205.12Z" fill="black" stroke="#E19B77" stroke-width="0.75" stroke-miterlimit="10"/>
<path d="M172.83 288.02V283.11H146.45V288.02H172.83Z" fill="black" stroke="#E19B77" stroke-width="0.75" stroke-miterlimit="10"/>
<path d="M172.83 296.33V291.42H146.45V296.33H172.83Z" fill="black" stroke="#E19B77" stroke-width="0.75" stroke-miterlimit="10"/>
<path d="M172.83 304.64V299.73H146.45V304.64H172.83Z" fill="black" stroke="#E19B77" stroke-width="0.75" stroke-miterlimit="10"/>
<path d="M205.12 315.29V310.38H178.74V315.29H205.12Z" fill="black" stroke="#E19B77" stroke-width="0.75" stroke-miterlimit="10"/>
<path d="M205.12 323.6V318.69H178.74V323.6H205.12Z" fill="black" stroke="#E19B77" stroke-width="0.75" stroke-miterlimit="10"/>
<path d="M205.11 331.91V327H178.73V331.91H205.11Z" fill="black" stroke="#E19B77" stroke-width="0.75" stroke-miterlimit="10"/>
<path d="M172.83 315.29V310.38H146.45V315.29H172.83Z" fill="black" stroke="#E19B77" stroke-width="0.75" stroke-miterlimit="10"/>
<path d="M172.83 323.61V318.7H146.45V323.61H172.83Z" fill="black" stroke="#E19B77" stroke-width="0.75" stroke-miterlimit="10"/>
<path d="M172.83 331.92V327.01H146.45V331.92H172.83Z" fill="black" stroke="#E19B77" stroke-width="0.75" stroke-miterlimit="10"/>
<path d="M205.11 342.56V337.65H178.73V342.56H205.11Z" fill="black" stroke="#E19B77" stroke-width="0.75" stroke-miterlimit="10"/>
<path d="M205.11 350.88V345.97H178.73V350.88H205.11Z" fill="black" stroke="#E19B77" stroke-width="0.75" stroke-miterlimit="10"/>
<path d="M205.12 359.19V354.28H178.74V359.19H205.12Z" fill="black" stroke="#E19B77" stroke-width="0.75" stroke-miterlimit="10"/>
<path d="M172.83 342.57V337.66H146.45V342.57H172.83Z" fill="black" stroke="#E19B77" stroke-width="0.75" stroke-miterlimit="10"/>
<path d="M172.83 350.88V345.97H146.45V350.88H172.83Z" fill="black" stroke="#E19B77" stroke-width="0.75" stroke-miterlimit="10"/>
<path d="M172.83 359.19V354.28H146.45V359.19H172.83Z" fill="black" stroke="#E19B77" stroke-width="0.75" stroke-miterlimit="10"/>
<path d="M205.12 369.84V364.93H178.74V369.84H205.12Z" fill="black" stroke="#E19B77" stroke-width="0.75" stroke-miterlimit="10"/>
<path d="M205.12 378.15V373.24H178.74V378.15H205.12Z" fill="black" stroke="#E19B77" stroke-width="0.75" stroke-miterlimit="10"/>
<path d="M205.11 386.46V381.55H178.73V386.46H205.11Z" fill="black" stroke="#E19B77" stroke-width="0.75" stroke-miterlimit="10"/>
<path d="M172.83 369.84V364.93H146.45V369.84H172.83Z" fill="black" stroke="#E19B77" stroke-width="0.75" stroke-miterlimit="10"/>
<path d="M172.83 378.16V373.25H146.45V378.16H172.83Z" fill="black" stroke="#E19B77" stroke-width="0.75" stroke-miterlimit="10"/>
<path d="M172.83 386.47V381.56H146.45V386.47H172.83Z" fill="black" stroke="#E19B77" stroke-width="0.75" stroke-miterlimit="10"/>
<path d="M189.34 180.28V218.05" stroke="#E19B77" stroke-width="0.75" stroke-miterlimit="10"/>
<path d="M191.93 195.04V217.18" stroke="#E19B77" stroke-width="0.75" stroke-miterlimit="10"/>
<path d="M451.93 329.78H430.5V358H451.93V329.78Z" fill="black" stroke="#E19B77" stroke-width="0.75" stroke-miterlimit="10"/>
<path d="M521.93 364.96H423.19V427.07H521.93V364.96Z" fill="black" stroke="#E19B77" stroke-width="0.75" stroke-miterlimit="10"/>
<path d="M522.26 427.4H422.86V364.63H522.26V427.4ZM423.52 426.74H521.6V365.29H423.52V426.74Z" fill="black" stroke="#E19B77" stroke-width="0.75" stroke-miterlimit="10"/>
<path d="M526.72 357.44H418.4V365.37H526.72V357.44Z" fill="black" stroke="#E19B77" stroke-width="0.75" stroke-miterlimit="10"/>
<path d="M527.05 365.71H418.06V357.11H527.05V365.71ZM418.73 365.05H526.39V357.78H418.73V365.05Z" fill="black" stroke="#E19B77" stroke-width="0.75" stroke-miterlimit="10"/>
<path d="M526.72 349.9H418.4V357.83H526.72V349.9Z" fill="black" stroke="#E19B77" stroke-width="0.75" stroke-miterlimit="10"/>
<path d="M527.05 358.17H418.06V349.57H527.05V358.17ZM418.73 357.51H526.39V350.24H418.73V357.51Z" fill="black" stroke="#E19B77" stroke-width="0.75" stroke-miterlimit="10"/>
<path d="M508.94 378.58H474.57V426.73H508.94V378.58Z" fill="black" stroke="#E19B77" stroke-width="0.75" stroke-miterlimit="10"/>
<path d="M448.29 378.58H435.35V390.71H448.29V378.58Z" fill="black" stroke="#E19B77" stroke-width="0.75" stroke-miterlimit="10"/>
<path d="M464.87 378.58H451.93V390.71H464.87V378.58Z" fill="black" stroke="#E19B77" stroke-width="0.75" stroke-miterlimit="10"/>
<path d="M549.16 100.44H548.01V102.69H549.16V100.44Z" fill="black" stroke="#E19B77" stroke-width="0.75" stroke-miterlimit="10"/>
<path d="M553.27 88.7C555.98 91.41 555.98 95.8 553.27 98.5C550.56 101.2 546.17 101.21 543.47 98.5" fill="black"/>
<path d="M553.27 88.7C555.98 91.41 555.98 95.8 553.27 98.5C550.56 101.2 546.17 101.21 543.47 98.5" stroke="#E19B77" stroke-width="0.75" stroke-miterlimit="10"/>
<path d="M576.19 102.7H543.19V424.51H576.19V102.7Z" fill="black" stroke="#E19B77" stroke-width="0.75" stroke-miterlimit="10"/>
<path d="M553.53 108.8H545.24V117.09H553.53V108.8Z" fill="#F5F5F5" stroke="#E19B77" stroke-miterlimit="10"/>
<path d="M565.91 108.8H557.62V117.09H565.91V108.8Z" fill="#F5F5F5" stroke="#E19B77" stroke-miterlimit="10"/>
<path d="M553.53 122.8H545.24V131.09H553.53V122.8Z" fill="#F5F5F5" stroke="#E19B77" stroke-miterlimit="10"/>
<path d="M565.91 122.8H557.62V131.09H565.91V122.8Z" fill="#F5F5F5" stroke="#E19B77" stroke-miterlimit="10"/>
<path d="M553.53 136.8H545.24V145.09H553.53V136.8Z" fill="#F5F5F5" stroke="#E19B77" stroke-miterlimit="10"/>
<path d="M565.91 136.8H557.62V145.09H565.91V136.8Z" fill="#F5F5F5" stroke="#E19B77" stroke-miterlimit="10"/>
<path d="M553.53 150.8H545.24V159.09H553.53V150.8Z" fill="#F5F5F5" stroke="#E19B77" stroke-miterlimit="10"/>
<path d="M565.91 150.8H557.62V159.09H565.91V150.8Z" fill="#F5F5F5" stroke="#E19B77" stroke-miterlimit="10"/>
<path d="M553.53 164.8H545.24V173.09H553.53V164.8Z" fill="#F5F5F5" stroke="#E19B77" stroke-miterlimit="10"/>
<path d="M565.91 164.8H557.62V173.09H565.91V164.8Z" fill="#F5F5F5" stroke="#E19B77" stroke-miterlimit="10"/>
<path d="M553.53 178.8H545.24V187.09H553.53V178.8Z" fill="#F5F5F5" stroke="#E19B77" stroke-miterlimit="10"/>
<path d="M565.91 178.8H557.62V187.09H565.91V178.8Z" fill="#F5F5F5" stroke="#E19B77" stroke-miterlimit="10"/>
<path d="M553.53 192.8H545.24V201.09H553.53V192.8Z" fill="#F5F5F5" stroke="#E19B77" stroke-miterlimit="10"/>
<path d="M565.91 192.8H557.62V201.09H565.91V192.8Z" fill="#F5F5F5" stroke="#E19B77" stroke-miterlimit="10"/>
<path d="M553.53 206.8H545.24V215.09H553.53V206.8Z" fill="#F5F5F5" stroke="#E19B77" stroke-miterlimit="10"/>
<path d="M565.91 206.8H557.62V215.09H565.91V206.8Z" fill="#F5F5F5" stroke="#E19B77" stroke-miterlimit="10"/>
<path d="M553.53 220.8H545.24V229.09H553.53V220.8Z" fill="#F5F5F5" stroke="#E19B77" stroke-miterlimit="10"/>
<path d="M565.91 220.8H557.62V229.09H565.91V220.8Z" fill="#F5F5F5" stroke="#E19B77" stroke-miterlimit="10"/>
<path d="M553.53 234.8H545.24V243.09H553.53V234.8Z" fill="#F5F5F5" stroke="#E19B77" stroke-miterlimit="10"/>
<path d="M565.91 234.8H557.62V243.09H565.91V234.8Z" fill="#F5F5F5" stroke="#E19B77" stroke-miterlimit="10"/>
<path d="M553.53 248.8H545.24V257.09H553.53V248.8Z" fill="#F5F5F5" stroke="#E19B77" stroke-miterlimit="10"/>
<path d="M565.91 248.8H557.62V257.09H565.91V248.8Z" fill="#F5F5F5" stroke="#E19B77" stroke-miterlimit="10"/>
<path d="M553.53 262.8H545.24V271.09H553.53V262.8Z" fill="#F5F5F5" stroke="#E19B77" stroke-miterlimit="10"/>
<path d="M565.91 262.8H557.62V271.09H565.91V262.8Z" fill="#F5F5F5" stroke="#E19B77" stroke-miterlimit="10"/>
<path d="M553.53 276.8H545.24V285.09H553.53V276.8Z" fill="#F5F5F5" stroke="#E19B77" stroke-miterlimit="10"/>
<path d="M565.91 276.8H557.62V285.09H565.91V276.8Z" fill="#F5F5F5" stroke="#E19B77" stroke-miterlimit="10"/>
<path d="M553.53 290.8H545.24V299.09H553.53V290.8Z" fill="#F5F5F5" stroke="#E19B77" stroke-miterlimit="10"/>
<path d="M565.91 290.8H557.62V299.09H565.91V290.8Z" fill="#F5F5F5" stroke="#E19B77" stroke-miterlimit="10"/>
<path d="M553.53 304.8H545.24V313.09H553.53V304.8Z" fill="#F5F5F5" stroke="#E19B77" stroke-miterlimit="10"/>
<path d="M565.91 304.8H557.62V313.09H565.91V304.8Z" fill="#F5F5F5" stroke="#E19B77" stroke-miterlimit="10"/>
<path d="M553.53 318.8H545.24V327.09H553.53V318.8Z" fill="#F5F5F5" stroke="#E19B77" stroke-miterlimit="10"/>
<path d="M565.91 318.8H557.62V327.09H565.91V318.8Z" fill="#F5F5F5" stroke="#E19B77" stroke-miterlimit="10"/>
<path d="M553.53 332.8H545.24V341.09H553.53V332.8Z" fill="#F5F5F5" stroke="#E19B77" stroke-miterlimit="10"/>
<path d="M565.91 332.8H557.62V341.09H565.91V332.8Z" fill="#F5F5F5" stroke="#E19B77" stroke-miterlimit="10"/>
<path d="M553.53 346.8H545.24V355.09H553.53V346.8Z" fill="#F5F5F5" stroke="#E19B77" stroke-miterlimit="10"/>
<path d="M565.91 346.8H557.62V355.09H565.91V346.8Z" fill="#F5F5F5" stroke="#E19B77" stroke-miterlimit="10"/>
<path d="M553.53 360.8H545.24V369.09H553.53V360.8Z" fill="#F5F5F5" stroke="#E19B77" stroke-miterlimit="10"/>
<path d="M565.91 360.8H557.62V369.09H565.91V360.8Z" fill="#F5F5F5" stroke="#E19B77" stroke-miterlimit="10"/>
<path d="M553.53 374.8H545.24V383.09H553.53V374.8Z" fill="#F5F5F5" stroke="#E19B77" stroke-miterlimit="10"/>
<path d="M565.91 374.8H557.62V383.09H565.91V374.8Z" fill="#F5F5F5" stroke="#E19B77" stroke-miterlimit="10"/>
<path d="M553.53 388.8H545.24V397.09H553.53V388.8Z" fill="#F5F5F5" stroke="#E19B77" stroke-miterlimit="10"/>
<path d="M565.91 388.8H557.62V397.09H565.91V388.8Z" fill="#F5F5F5" stroke="#E19B77" stroke-miterlimit="10"/>
<path d="M565.91 78.59V102.7" stroke="#E19B77" stroke-width="0.75" stroke-miterlimit="10"/>
<path d="M349.69 428.06H290.4V102.87L349.69 137.17V428.06Z" fill="black" stroke="#E19B77" stroke-width="0.75" stroke-miterlimit="10"/>
<path d="M200.99 428.06H260.77V49.41L200.99 89.35V428.06Z" fill="black" stroke="#E19B77" stroke-width="0.75" stroke-miterlimit="10"/>
<path d="M247.29 428.06H307.08V0.75L247.29 45.83V428.06Z" fill="black" stroke="#E19B77" stroke-width="0.75" stroke-miterlimit="10"/>
<path d="M267.49 68.24H259.38V99.79H267.49V68.24Z" fill="black" stroke="#E19B77" stroke-width="0.75" stroke-miterlimit="10"/>
<path d="M281.24 68.24H273.13V99.79H281.24V68.24Z" fill="black" stroke="#E19B77" stroke-width="0.75" stroke-miterlimit="10"/>
<path d="M294.98 68.24H286.87V99.79H294.98V68.24Z" fill="black" stroke="#E19B77" stroke-width="0.75" stroke-miterlimit="10"/>
<path d="M267.49 119.5H259.38V151.05H267.49V119.5Z" fill="black" stroke="#E19B77" stroke-width="0.75" stroke-miterlimit="10"/>
<path d="M281.24 119.5H273.13V151.05H281.24V119.5Z" fill="black" stroke="#E19B77" stroke-width="0.75" stroke-miterlimit="10"/>
<path d="M294.98 119.5H286.87V151.05H294.98V119.5Z" fill="black" stroke="#E19B77" stroke-width="0.75" stroke-miterlimit="10"/>
<path d="M267.49 170.77H259.38V202.32H267.49V170.77Z" fill="black" stroke="#E19B77" stroke-width="0.75" stroke-miterlimit="10"/>
<path d="M281.24 170.77H273.13V202.32H281.24V170.77Z" fill="black" stroke="#E19B77" stroke-width="0.75" stroke-miterlimit="10"/>
<path d="M294.98 170.77H286.87V202.32H294.98V170.77Z" fill="black" stroke="#E19B77" stroke-width="0.75" stroke-miterlimit="10"/>
<path d="M267.49 222.04H259.38V253.59H267.49V222.04Z" fill="black" stroke="#E19B77" stroke-width="0.75" stroke-miterlimit="10"/>
<path d="M281.24 222.04H273.13V253.59H281.24V222.04Z" fill="black" stroke="#E19B77" stroke-width="0.75" stroke-miterlimit="10"/>
<path d="M294.98 222.04H286.87V253.59H294.98V222.04Z" fill="black" stroke="#E19B77" stroke-width="0.75" stroke-miterlimit="10"/>
<path d="M267.49 273.3H259.38V304.85H267.49V273.3Z" fill="black" stroke="#E19B77" stroke-width="0.75" stroke-miterlimit="10"/>
<path d="M281.24 273.3H273.13V304.85H281.24V273.3Z" fill="black" stroke="#E19B77" stroke-width="0.75" stroke-miterlimit="10"/>
<path d="M294.98 273.3H286.87V304.85H294.98V273.3Z" fill="black" stroke="#E19B77" stroke-width="0.75" stroke-miterlimit="10"/>
<path d="M267.49 324.57H259.38V356.12H267.49V324.57Z" fill="black" stroke="#E19B77" stroke-width="0.75" stroke-miterlimit="10"/>
<path d="M223.17 102.87H215.06V134.42H223.17V102.87Z" fill="black" stroke="#E19B77" stroke-width="0.75" stroke-miterlimit="10"/>
<path d="M223.17 154.14H215.06V185.69H223.17V154.14Z" fill="black" stroke="#E19B77" stroke-width="0.75" stroke-miterlimit="10"/>
<path d="M223.17 205.4H215.06V236.95H223.17V205.4Z" fill="black" stroke="#E19B77" stroke-width="0.75" stroke-miterlimit="10"/>
<path d="M223.17 256.67H215.06V288.22H223.17V256.67Z" fill="black" stroke="#E19B77" stroke-width="0.75" stroke-miterlimit="10"/>
<path d="M223.17 307.93H215.06V339.48H223.17V307.93Z" fill="black" stroke="#E19B77" stroke-width="0.75" stroke-miterlimit="10"/>
<path d="M223.17 359.2H215.06V390.75H223.17V359.2Z" fill="black" stroke="#E19B77" stroke-width="0.75" stroke-miterlimit="10"/>
<path d="M335.62 146.06H327.51V177.61H335.62V146.06Z" fill="black" stroke="#E19B77" stroke-width="0.75" stroke-miterlimit="10"/>
<path d="M335.62 197.33H327.51V228.88H335.62V197.33Z" fill="black" stroke="#E19B77" stroke-width="0.75" stroke-miterlimit="10"/>
<path d="M335.62 248.59H327.51V280.14H335.62V248.59Z" fill="black" stroke="#E19B77" stroke-width="0.75" stroke-miterlimit="10"/>
<path d="M335.62 299.86H327.51V331.41H335.62V299.86Z" fill="black" stroke="#E19B77" stroke-width="0.75" stroke-miterlimit="10"/>
<path d="M335.62 351.13H327.51V382.68H335.62V351.13Z" fill="black" stroke="#E19B77" stroke-width="0.75" stroke-miterlimit="10"/>
<path d="M281.24 324.57H273.13V356.12H281.24V324.57Z" fill="black" stroke="#E19B77" stroke-width="0.75" stroke-miterlimit="10"/>
<path d="M294.98 324.57H286.87V356.12H294.98V324.57Z" fill="black" stroke="#E19B77" stroke-width="0.75" stroke-miterlimit="10"/>
<path d="M565.75 362.46H553.63V385.62H565.75V362.46Z" fill="black" stroke="#E19B77" stroke-width="0.75" stroke-miterlimit="10"/>
<path d="M617.8 389.79H551.13V427.46H617.8V389.79Z" fill="black" stroke="#E19B77" stroke-width="0.75" stroke-miterlimit="10"/>
<path d="M584.46 362.46L604.88 376.43L625.29 390.39H584.46H543.64L564.05 376.43L584.46 362.46Z" fill="black" stroke="#E19B77" stroke-width="0.75" stroke-miterlimit="10"/>
<path d="M608.17 395.79H603.26V414.87H608.17V395.79Z" fill="black" stroke="#E19B77" stroke-width="0.75" stroke-miterlimit="10"/>
<path d="M595.13 395.79H557.41V414.87H595.13V395.79Z" fill="black" stroke="#E19B77" stroke-width="0.75" stroke-miterlimit="10"/>
<path d="M401.6 344.65H383.93V367.92H401.6V344.65Z" fill="black" stroke="#E19B77" stroke-width="0.75" stroke-miterlimit="10"/>
<path d="M459.32 373.66H377.91V424.87H459.32V373.66Z" fill="black" stroke="#E19B77" stroke-width="0.75" stroke-miterlimit="10"/>
<path d="M459.59 425.14H377.63V373.39H459.59V425.14ZM378.18 424.59H459.05V373.93H378.18V424.59Z" fill="black" stroke="#E19B77" stroke-width="0.75" stroke-miterlimit="10"/>
<path d="M463.27 367.46H373.96V374H463.27V367.46Z" fill="black" stroke="#E19B77" stroke-width="0.75" stroke-miterlimit="10"/>
<path d="M463.54 374.27H373.68V367.18H463.54V374.27ZM374.23 373.72H463V367.72H374.23V373.72Z" fill="black" stroke="#E19B77" stroke-width="0.75" stroke-miterlimit="10"/>
<path d="M463.27 361.24H373.96V367.78H463.27V361.24Z" fill="black" stroke="#E19B77" stroke-width="0.75" stroke-miterlimit="10"/>
<path d="M463.54 368.06H373.68V360.97H463.54V368.06ZM374.23 367.51H463V361.51H374.23V367.51Z" fill="black" stroke="#E19B77" stroke-width="0.75" stroke-miterlimit="10"/>
<path d="M448.6 384.89H420.27V424.59H448.6V384.89Z" fill="black" stroke="#E19B77" stroke-width="0.75" stroke-miterlimit="10"/>
<path d="M398.6 384.89H387.93V394.89H398.6V384.89Z" fill="black" stroke="#E19B77" stroke-width="0.75" stroke-miterlimit="10"/>
<path d="M412.27 384.89H401.6V394.89H412.27V384.89Z" fill="black" stroke="#E19B77" stroke-width="0.75" stroke-miterlimit="10"/>
<path d="M108.24 335.8V423.03H163.1V335.8H108.24Z" fill="black" stroke="#E19B77" stroke-miterlimit="10"/>
<path d="M163.38 423.3H107.97V335.53H163.38V423.3ZM108.52 422.75H162.84V336.07H108.52V422.75Z" fill="#F5F5F5" stroke="#E19B77" stroke-miterlimit="10"/>
<path d="M114.06 408.13V417.02H157.29V408.13H114.06Z" fill="#F5F5F5" stroke="#E19B77" stroke-miterlimit="10"/>
<path d="M114.06 394.87V403.76H157.29V394.87H114.06Z" fill="#F5F5F5" stroke="#E19B77" stroke-miterlimit="10"/>
<path d="M114.06 381.6V390.49H157.29V381.6H114.06Z" fill="#F5F5F5" stroke="#E19B77" stroke-miterlimit="10"/>
<path d="M114.06 368.34V377.23H157.29V368.34H114.06Z" fill="#F5F5F5" stroke="#E19B77" stroke-miterlimit="10"/>
<path d="M114.06 355.07V363.96H157.29V355.07H114.06Z" fill="#F5F5F5" stroke="#E19B77" stroke-miterlimit="10"/>
<path d="M114.06 341.81V350.7H157.29V341.81H114.06Z" fill="#F5F5F5" stroke="#E19B77" stroke-miterlimit="10"/>
<path d="M166.33 332.95H105.01V335.89H166.33V332.95Z" fill="black" stroke="#E19B77" stroke-miterlimit="10"/>
<path d="M166.6 336.17H104.74V332.68H166.6V336.17ZM105.28 335.62H166.05V333.22H105.28V335.62Z" fill="#F5F5F5" stroke="#E19B77" stroke-miterlimit="10"/>
<path d="M101.45 331.99V424.31" stroke="#E19B77" stroke-width="0.75" stroke-miterlimit="10"/>
<path d="M100.85 332.48H109.17" stroke="#E19B77" stroke-width="0.75" stroke-miterlimit="10"/>
<path d="M100.85 334.94H109.17" stroke="#E19B77" stroke-width="0.75" stroke-miterlimit="10"/>
<path d="M100.85 337.41H109.17" stroke="#E19B77" stroke-width="0.75" stroke-miterlimit="10"/>
<path d="M100.85 339.88H109.17" stroke="#E19B77" stroke-width="0.75" stroke-miterlimit="10"/>
<path d="M100.85 342.34H109.17" stroke="#E19B77" stroke-width="0.75" stroke-miterlimit="10"/>
<path d="M100.85 344.81H109.17" stroke="#E19B77" stroke-width="0.75" stroke-miterlimit="10"/>
<path d="M100.85 347.27H109.17" stroke="#E19B77" stroke-width="0.75" stroke-miterlimit="10"/>
<path d="M100.85 349.74H109.17" stroke="#E19B77" stroke-width="0.75" stroke-miterlimit="10"/>
<path d="M100.85 352.21H109.17" stroke="#E19B77" stroke-width="0.75" stroke-miterlimit="10"/>
<path d="M100.85 354.67H109.17" stroke="#E19B77" stroke-width="0.75" stroke-miterlimit="10"/>
<path d="M100.85 357.14H109.17" stroke="#E19B77" stroke-width="0.75" stroke-miterlimit="10"/>
<path d="M100.85 359.6H109.17" stroke="#E19B77" stroke-width="0.75" stroke-miterlimit="10"/>
<path d="M100.85 362.07H109.17" stroke="#E19B77" stroke-width="0.75" stroke-miterlimit="10"/>
<path d="M100.85 364.54H109.17" stroke="#E19B77" stroke-width="0.75" stroke-miterlimit="10"/>
<path d="M100.85 367H109.17" stroke="#E19B77" stroke-width="0.75" stroke-miterlimit="10"/>
<path d="M100.85 369.47H109.17" stroke="#E19B77" stroke-width="0.75" stroke-miterlimit="10"/>
<path d="M100.85 371.93H109.17" stroke="#E19B77" stroke-width="0.75" stroke-miterlimit="10"/>
<path d="M100.85 374.4H109.17" stroke="#E19B77" stroke-width="0.75" stroke-miterlimit="10"/>
<path d="M100.85 376.86H109.17" stroke="#E19B77" stroke-width="0.75" stroke-miterlimit="10"/>
<path d="M100.85 379.33H109.17" stroke="#E19B77" stroke-width="0.75" stroke-miterlimit="10"/>
<path d="M100.85 381.8H109.17" stroke="#E19B77" stroke-width="0.75" stroke-miterlimit="10"/>
<path d="M100.85 384.26H109.17" stroke="#E19B77" stroke-width="0.75" stroke-miterlimit="10"/>
<path d="M100.85 386.73H109.17" stroke="#E19B77" stroke-width="0.75" stroke-miterlimit="10"/>
<path d="M100.85 389.19H109.17" stroke="#E19B77" stroke-width="0.75" stroke-miterlimit="10"/>
<path d="M100.85 391.66H109.17" stroke="#E19B77" stroke-width="0.75" stroke-miterlimit="10"/>
<path d="M100.85 394.13H109.17" stroke="#E19B77" stroke-width="0.75" stroke-miterlimit="10"/>
<path d="M100.85 396.59H109.17" stroke="#E19B77" stroke-width="0.75" stroke-miterlimit="10"/>
<path d="M100.85 399.06H109.17" stroke="#E19B77" stroke-width="0.75" stroke-miterlimit="10"/>
<path d="M100.85 401.52H109.17" stroke="#E19B77" stroke-width="0.75" stroke-miterlimit="10"/>
<path d="M100.85 403.99H109.17" stroke="#E19B77" stroke-width="0.75" stroke-miterlimit="10"/>
<path d="M100.85 406.46H109.17" stroke="#E19B77" stroke-width="0.75" stroke-miterlimit="10"/>
<path d="M100.85 408.92H109.17" stroke="#E19B77" stroke-width="0.75" stroke-miterlimit="10"/>
<path d="M100.85 411.39H109.17" stroke="#E19B77" stroke-width="0.75" stroke-miterlimit="10"/>
<path d="M100.85 413.85H109.17" stroke="#E19B77" stroke-width="0.75" stroke-miterlimit="10"/>
<path d="M100.85 416.32H109.17" stroke="#E19B77" stroke-width="0.75" stroke-miterlimit="10"/>
<path d="M100.85 418.79H109.17" stroke="#E19B77" stroke-width="0.75" stroke-miterlimit="10"/>
<path d="M100.85 421.25H109.17" stroke="#E19B77" stroke-width="0.75" stroke-miterlimit="10"/>
<path d="M100.85 423.72H109.17" stroke="#E19B77" stroke-width="0.75" stroke-miterlimit="10"/>
<path d="M616.65 303.74V429.3" stroke="#E19B77" stroke-width="0.75" stroke-miterlimit="10"/>
<path d="M615.95 304.41H625.67" stroke="#E19B77" stroke-width="0.75" stroke-miterlimit="10"/>
<path d="M615.95 307.76H625.67" stroke="#E19B77" stroke-width="0.75" stroke-miterlimit="10"/>
<path d="M615.95 311.11H625.67" stroke="#E19B77" stroke-width="0.75" stroke-miterlimit="10"/>
<path d="M615.95 314.47H625.67" stroke="#E19B77" stroke-width="0.75" stroke-miterlimit="10"/>
<path d="M615.95 317.82H625.67" stroke="#E19B77" stroke-width="0.75" stroke-miterlimit="10"/>
<path d="M615.95 321.17H625.67" stroke="#E19B77" stroke-width="0.75" stroke-miterlimit="10"/>
<path d="M615.95 324.53H625.67" stroke="#E19B77" stroke-width="0.75" stroke-miterlimit="10"/>
<path d="M615.95 327.88H625.67" stroke="#E19B77" stroke-width="0.75" stroke-miterlimit="10"/>
<path d="M615.95 331.24H625.67" stroke="#E19B77" stroke-width="0.75" stroke-miterlimit="10"/>
<path d="M615.95 334.59H625.67" stroke="#E19B77" stroke-width="0.75" stroke-miterlimit="10"/>
<path d="M615.95 337.94H625.67" stroke="#E19B77" stroke-width="0.75" stroke-miterlimit="10"/>
<path d="M615.95 341.3H625.67" stroke="#E19B77" stroke-width="0.75" stroke-miterlimit="10"/>
<path d="M615.95 344.65H625.67" stroke="#E19B77" stroke-width="0.75" stroke-miterlimit="10"/>
<path d="M615.95 348H625.67" stroke="#E19B77" stroke-width="0.75" stroke-miterlimit="10"/>
<path d="M615.95 351.36H625.67" stroke="#E19B77" stroke-width="0.75" stroke-miterlimit="10"/>
<path d="M615.95 354.71H625.67" stroke="#E19B77" stroke-width="0.75" stroke-miterlimit="10"/>
<path d="M615.95 358.07H625.67" stroke="#E19B77" stroke-width="0.75" stroke-miterlimit="10"/>
<path d="M615.95 361.42H625.67" stroke="#E19B77" stroke-width="0.75" stroke-miterlimit="10"/>
<path d="M615.95 364.77H625.67" stroke="#E19B77" stroke-width="0.75" stroke-miterlimit="10"/>
<path d="M615.95 368.13H625.67" stroke="#E19B77" stroke-width="0.75" stroke-miterlimit="10"/>
<path d="M615.95 371.48H625.67" stroke="#E19B77" stroke-width="0.75" stroke-miterlimit="10"/>
<path d="M615.95 374.84H625.67" stroke="#E19B77" stroke-width="0.75" stroke-miterlimit="10"/>
<path d="M615.95 378.19H625.67" stroke="#E19B77" stroke-width="0.75" stroke-miterlimit="10"/>
<path d="M615.95 381.54H625.67" stroke="#E19B77" stroke-width="0.75" stroke-miterlimit="10"/>
<path d="M615.95 384.9H625.67" stroke="#E19B77" stroke-width="0.75" stroke-miterlimit="10"/>
<path d="M615.95 388.25H625.67" stroke="#E19B77" stroke-width="0.75" stroke-miterlimit="10"/>
<path d="M615.95 391.6H625.67" stroke="#E19B77" stroke-width="0.75" stroke-miterlimit="10"/>
<path d="M615.95 394.96H625.67" stroke="#E19B77" stroke-width="0.75" stroke-miterlimit="10"/>
<path d="M615.95 398.31H625.67" stroke="#E19B77" stroke-width="0.75" stroke-miterlimit="10"/>
<path d="M615.95 401.67H625.67" stroke="#E19B77" stroke-width="0.75" stroke-miterlimit="10"/>
<path d="M615.95 405.02H625.67" stroke="#E19B77" stroke-width="0.75" stroke-miterlimit="10"/>
<path d="M615.95 408.37H625.67" stroke="#E19B77" stroke-width="0.75" stroke-miterlimit="10"/>
<path d="M615.95 411.73H625.67" stroke="#E19B77" stroke-width="0.75" stroke-miterlimit="10"/>
<path d="M615.95 415.08H625.67" stroke="#E19B77" stroke-width="0.75" stroke-miterlimit="10"/>
<path d="M615.95 418.43H625.67" stroke="#E19B77" stroke-width="0.75" stroke-miterlimit="10"/>
<path d="M615.95 421.79H625.67" stroke="#E19B77" stroke-width="0.75" stroke-miterlimit="10"/>
<path d="M615.95 425.14H625.67" stroke="#E19B77" stroke-width="0.75" stroke-miterlimit="10"/>
<path d="M615.95 428.5H625.67" stroke="#E19B77" stroke-width="0.75" stroke-miterlimit="10"/>
<path d="M683.79 117.65H628.29V304.07H683.79V117.65Z" fill="black" stroke="#E19B77" stroke-width="0.75" stroke-miterlimit="10"/>
<path d="M690.29 303.29H621.78V378.44H690.29V303.29Z" fill="black" stroke="#E19B77" stroke-width="0.75" stroke-miterlimit="10"/>
<path d="M697.69 378.44H614.39V427.48H697.69V378.44Z" fill="black" stroke="#E19B77" stroke-width="0.75" stroke-miterlimit="10"/>
<path d="M644.24 308.97H636.01V314.22H644.24V308.97Z" fill="#F5F5F5" stroke="#E19B77" stroke-miterlimit="10"/>
<path d="M644.24 317.59H636.01V322.84H644.24V317.59Z" fill="#F5F5F5" stroke="#E19B77" stroke-miterlimit="10"/>
<path d="M644.24 326.21H636.01V331.46H644.24V326.21Z" fill="#F5F5F5" stroke="#E19B77" stroke-miterlimit="10"/>
<path d="M644.24 334.82H636.01V340.07H644.24V334.82Z" fill="#F5F5F5" stroke="#E19B77" stroke-miterlimit="10"/>
<path d="M644.24 343.44H636.01V348.69H644.24V343.44Z" fill="#F5F5F5" stroke="#E19B77" stroke-miterlimit="10"/>
<path d="M644.24 360.68H636.01V365.93H644.24V360.68Z" fill="#F5F5F5" stroke="#E19B77" stroke-miterlimit="10"/>
<path d="M644.24 369.3H636.01V374.55H644.24V369.3Z" fill="#F5F5F5" stroke="#E19B77" stroke-miterlimit="10"/>
<path d="M654.85 308.97H646.62V314.22H654.85V308.97Z" fill="#F5F5F5" stroke="#E19B77" stroke-miterlimit="10"/>
<path d="M654.85 317.59H646.62V322.84H654.85V317.59Z" fill="#F5F5F5" stroke="#E19B77" stroke-miterlimit="10"/>
<path d="M654.85 326.21H646.62V331.46H654.85V326.21Z" fill="#F5F5F5" stroke="#E19B77" stroke-miterlimit="10"/>
<path d="M654.85 334.82H646.62V340.07H654.85V334.82Z" fill="#F5F5F5" stroke="#E19B77" stroke-miterlimit="10"/>
<path d="M654.85 343.44H646.62V348.69H654.85V343.44Z" fill="#F5F5F5" stroke="#E19B77" stroke-miterlimit="10"/>
<path d="M654.85 352.06H646.62V357.31H654.85V352.06Z" fill="#F5F5F5" stroke="#E19B77" stroke-miterlimit="10"/>
<path d="M654.85 360.68H646.62V365.93H654.85V360.68Z" fill="#F5F5F5" stroke="#E19B77" stroke-miterlimit="10"/>
<path d="M654.85 369.3H646.62V374.55H654.85V369.3Z" fill="#F5F5F5" stroke="#E19B77" stroke-miterlimit="10"/>
<path d="M665.46 308.97H657.23V314.22H665.46V308.97Z" fill="#F5F5F5" stroke="#E19B77" stroke-miterlimit="10"/>
<path d="M665.46 317.59H657.23V322.84H665.46V317.59Z" fill="#F5F5F5" stroke="#E19B77" stroke-miterlimit="10"/>
<path d="M665.46 326.21H657.23V331.46H665.46V326.21Z" fill="#F5F5F5" stroke="#E19B77" stroke-miterlimit="10"/>
<path d="M665.46 343.44H657.23V348.69H665.46V343.44Z" fill="#F5F5F5" stroke="#E19B77" stroke-miterlimit="10"/>
<path d="M665.46 352.06H657.23V357.31H665.46V352.06Z" fill="#F5F5F5" stroke="#E19B77" stroke-miterlimit="10"/>
<path d="M665.46 369.3H657.23V374.55H665.46V369.3Z" fill="#F5F5F5" stroke="#E19B77" stroke-miterlimit="10"/>
<path d="M676.07 308.97H667.84V314.22H676.07V308.97Z" fill="#F5F5F5" stroke="#E19B77" stroke-miterlimit="10"/>
<path d="M676.07 317.59H667.84V322.84H676.07V317.59Z" fill="#F5F5F5" stroke="#E19B77" stroke-miterlimit="10"/>
<path d="M676.07 326.21H667.84V331.46H676.07V326.21Z" fill="#F5F5F5" stroke="#E19B77" stroke-miterlimit="10"/>
<path d="M676.07 334.82H667.84V340.07H676.07V334.82Z" fill="#F5F5F5" stroke="#E19B77" stroke-miterlimit="10"/>
<path d="M676.07 343.44H667.84V348.69H676.07V343.44Z" fill="#F5F5F5" stroke="#E19B77" stroke-miterlimit="10"/>
<path d="M676.07 360.68H667.84V365.93H676.07V360.68Z" fill="#F5F5F5" stroke="#E19B77" stroke-miterlimit="10"/>
<path d="M676.07 369.3H667.84V374.55H676.07V369.3Z" fill="#F5F5F5" stroke="#E19B77" stroke-miterlimit="10"/>
<path d="M649.54 130.67H641.31V135.92H649.54V130.67Z" fill="#F5F5F5" stroke="#E19B77" stroke-miterlimit="10"/>
<path d="M649.54 139.29H641.31V144.54H649.54V139.29Z" fill="#F5F5F5" stroke="#E19B77" stroke-miterlimit="10"/>
<path d="M649.54 147.91H641.31V153.16H649.54V147.91Z" fill="#F5F5F5" stroke="#E19B77" stroke-miterlimit="10"/>
<path d="M649.54 156.53H641.31V161.78H649.54V156.53Z" fill="#F5F5F5" stroke="#E19B77" stroke-miterlimit="10"/>
<path d="M649.54 165.14H641.31V170.39H649.54V165.14Z" fill="#F5F5F5" stroke="#E19B77" stroke-miterlimit="10"/>
<path d="M649.54 173.76H641.31V179.01H649.54V173.76Z" fill="#F5F5F5" stroke="#E19B77" stroke-miterlimit="10"/>
<path d="M649.54 182.38H641.31V187.63H649.54V182.38Z" fill="#F5F5F5" stroke="#E19B77" stroke-miterlimit="10"/>
<path d="M649.54 191H641.31V196.25H649.54V191Z" fill="#F5F5F5" stroke="#E19B77" stroke-miterlimit="10"/>
<path d="M649.54 199.62H641.31V204.87H649.54V199.62Z" fill="#F5F5F5" stroke="#E19B77" stroke-miterlimit="10"/>
<path d="M649.54 208.23H641.31V213.48H649.54V208.23Z" fill="#F5F5F5" stroke="#E19B77" stroke-miterlimit="10"/>
<path d="M649.54 216.85H641.31V222.1H649.54V216.85Z" fill="#F5F5F5" stroke="#E19B77" stroke-miterlimit="10"/>
<path d="M649.54 225.47H641.31V230.72H649.54V225.47Z" fill="#F5F5F5" stroke="#E19B77" stroke-miterlimit="10"/>
<path d="M649.54 234.09H641.31V239.34H649.54V234.09Z" fill="#F5F5F5" stroke="#E19B77" stroke-miterlimit="10"/>
<path d="M649.54 242.71H641.31V247.96H649.54V242.71Z" fill="#F5F5F5" stroke="#E19B77" stroke-miterlimit="10"/>
<path d="M649.54 251.32H641.31V256.57H649.54V251.32Z" fill="#F5F5F5" stroke="#E19B77" stroke-miterlimit="10"/>
<path d="M649.54 259.94H641.31V265.19H649.54V259.94Z" fill="#F5F5F5" stroke="#E19B77" stroke-miterlimit="10"/>
<path d="M649.54 268.56H641.31V273.81H649.54V268.56Z" fill="#F5F5F5" stroke="#E19B77" stroke-miterlimit="10"/>
<path d="M649.54 277.18H641.31V282.43H649.54V277.18Z" fill="#F5F5F5" stroke="#E19B77" stroke-miterlimit="10"/>
<path d="M649.54 285.8H641.31V291.05H649.54V285.8Z" fill="#F5F5F5" stroke="#E19B77" stroke-miterlimit="10"/>
<path d="M649.54 294.42H641.31V299.67H649.54V294.42Z" fill="#F5F5F5" stroke="#E19B77" stroke-miterlimit="10"/>
<path d="M660.15 122.05H651.92V127.3H660.15V122.05Z" fill="#F5F5F5" stroke="#E19B77" stroke-miterlimit="10"/>
<path d="M660.15 130.67H651.92V135.92H660.15V130.67Z" fill="#F5F5F5" stroke="#E19B77" stroke-miterlimit="10"/>
<path d="M660.15 139.29H651.92V144.54H660.15V139.29Z" fill="#F5F5F5" stroke="#E19B77" stroke-miterlimit="10"/>
<path d="M660.15 147.91H651.92V153.16H660.15V147.91Z" fill="#F5F5F5" stroke="#E19B77" stroke-miterlimit="10"/>
<path d="M660.15 156.53H651.92V161.78H660.15V156.53Z" fill="#F5F5F5" stroke="#E19B77" stroke-miterlimit="10"/>
<path d="M660.15 165.14H651.92V170.39H660.15V165.14Z" fill="#F5F5F5" stroke="#E19B77" stroke-miterlimit="10"/>
<path d="M660.15 173.76H651.92V179.01H660.15V173.76Z" fill="#F5F5F5" stroke="#E19B77" stroke-miterlimit="10"/>
<path d="M660.15 191H651.92V196.25H660.15V191Z" fill="#F5F5F5" stroke="#E19B77" stroke-miterlimit="10"/>
<path d="M660.15 208.23H651.92V213.48H660.15V208.23Z" fill="#F5F5F5" stroke="#E19B77" stroke-miterlimit="10"/>
<path d="M660.15 216.85H651.92V222.1H660.15V216.85Z" fill="#F5F5F5" stroke="#E19B77" stroke-miterlimit="10"/>
<path d="M660.15 234.09H651.92V239.34H660.15V234.09Z" fill="#F5F5F5" stroke="#E19B77" stroke-miterlimit="10"/>
<path d="M660.15 242.71H651.92V247.96H660.15V242.71Z" fill="#F5F5F5" stroke="#E19B77" stroke-miterlimit="10"/>
<path d="M660.15 251.32H651.92V256.57H660.15V251.32Z" fill="#F5F5F5" stroke="#E19B77" stroke-miterlimit="10"/>
<path d="M660.15 268.56H651.92V273.81H660.15V268.56Z" fill="#F5F5F5" stroke="#E19B77" stroke-miterlimit="10"/>
<path d="M660.15 277.18H651.92V282.43H660.15V277.18Z" fill="#F5F5F5" stroke="#E19B77" stroke-miterlimit="10"/>
<path d="M660.15 294.42H651.92V299.67H660.15V294.42Z" fill="#F5F5F5" stroke="#E19B77" stroke-miterlimit="10"/>
<path d="M670.76 122.05H662.53V127.3H670.76V122.05Z" fill="#F5F5F5" stroke="#E19B77" stroke-miterlimit="10"/>
<path d="M670.76 130.67H662.53V135.92H670.76V130.67Z" fill="#F5F5F5" stroke="#E19B77" stroke-miterlimit="10"/>
<path d="M670.76 139.29H662.53V144.54H670.76V139.29Z" fill="#F5F5F5" stroke="#E19B77" stroke-miterlimit="10"/>
<path d="M670.76 147.91H662.53V153.16H670.76V147.91Z" fill="#F5F5F5" stroke="#E19B77" stroke-miterlimit="10"/>
<path d="M670.76 156.53H662.53V161.78H670.76V156.53Z" fill="#F5F5F5" stroke="#E19B77" stroke-miterlimit="10"/>
<path d="M670.76 173.76H662.53V179.01H670.76V173.76Z" fill="#F5F5F5" stroke="#E19B77" stroke-miterlimit="10"/>
<path d="M670.76 182.38H662.53V187.63H670.76V182.38Z" fill="#F5F5F5" stroke="#E19B77" stroke-miterlimit="10"/>
<path d="M670.76 191H662.53V196.25H670.76V191Z" fill="#F5F5F5" stroke="#E19B77" stroke-miterlimit="10"/>
<path d="M670.76 199.62H662.53V204.87H670.76V199.62Z" fill="#F5F5F5" stroke="#E19B77" stroke-miterlimit="10"/>
<path d="M670.76 208.23H662.53V213.48H670.76V208.23Z" fill="#F5F5F5" stroke="#E19B77" stroke-miterlimit="10"/>
<path d="M670.76 216.85H662.53V222.1H670.76V216.85Z" fill="#F5F5F5" stroke="#E19B77" stroke-miterlimit="10"/>
<path d="M670.76 225.47H662.53V230.72H670.76V225.47Z" fill="#F5F5F5" stroke="#E19B77" stroke-miterlimit="10"/>
<path d="M670.76 234.09H662.53V239.34H670.76V234.09Z" fill="#F5F5F5" stroke="#E19B77" stroke-miterlimit="10"/>
<path d="M670.76 242.71H662.53V247.96H670.76V242.71Z" fill="#F5F5F5" stroke="#E19B77" stroke-miterlimit="10"/>
<path d="M670.76 251.32H662.53V256.57H670.76V251.32Z" fill="#F5F5F5" stroke="#E19B77" stroke-miterlimit="10"/>
<path d="M670.76 259.94H662.53V265.19H670.76V259.94Z" fill="#F5F5F5" stroke="#E19B77" stroke-miterlimit="10"/>
<path d="M670.76 268.56H662.53V273.81H670.76V268.56Z" fill="#F5F5F5" stroke="#E19B77" stroke-miterlimit="10"/>
<path d="M670.76 285.8H662.53V291.05H670.76V285.8Z" fill="#F5F5F5" stroke="#E19B77" stroke-miterlimit="10"/>
<path d="M670.76 294.42H662.53V299.67H670.76V294.42Z" fill="#F5F5F5" stroke="#E19B77" stroke-miterlimit="10"/>
<path d="M640.12 383.1H631.89V388.35H640.12V383.1Z" fill="#F5F5F5" stroke="#E19B77" stroke-miterlimit="10"/>
<path d="M640.12 391.72H631.89V396.97H640.12V391.72Z" fill="#F5F5F5" stroke="#E19B77" stroke-miterlimit="10"/>
<path d="M640.12 400.34H631.89V405.59H640.12V400.34Z" fill="#F5F5F5" stroke="#E19B77" stroke-miterlimit="10"/>
<path d="M640.12 408.96H631.89V414.21H640.12V408.96Z" fill="#F5F5F5" stroke="#E19B77" stroke-miterlimit="10"/>
<path d="M640.12 417.57H631.89V422.82H640.12V417.57Z" fill="#F5F5F5" stroke="#E19B77" stroke-miterlimit="10"/>
<path d="M650.73 383.1H642.5V388.35H650.73V383.1Z" fill="#F5F5F5" stroke="#E19B77" stroke-miterlimit="10"/>
<path d="M650.73 400.34H642.5V405.59H650.73V400.34Z" fill="#F5F5F5" stroke="#E19B77" stroke-miterlimit="10"/>
<path d="M650.73 408.96H642.5V414.21H650.73V408.96Z" fill="#F5F5F5" stroke="#E19B77" stroke-miterlimit="10"/>
<path d="M650.73 417.57H642.5V422.82H650.73V417.57Z" fill="#F5F5F5" stroke="#E19B77" stroke-miterlimit="10"/>
<path d="M661.34 383.1H653.11V388.35H661.34V383.1Z" fill="#F5F5F5" stroke="#E19B77" stroke-miterlimit="10"/>
<path d="M661.34 391.72H653.11V396.97H661.34V391.72Z" fill="#F5F5F5" stroke="#E19B77" stroke-miterlimit="10"/>
<path d="M661.34 400.34H653.11V405.59H661.34V400.34Z" fill="#F5F5F5" stroke="#E19B77" stroke-miterlimit="10"/>
<path d="M661.34 408.96H653.11V414.21H661.34V408.96Z" fill="#F5F5F5" stroke="#E19B77" stroke-miterlimit="10"/>
<path d="M661.34 417.57H653.11V422.82H661.34V417.57Z" fill="#F5F5F5" stroke="#E19B77" stroke-miterlimit="10"/>
<path d="M671.95 383.1H663.72V388.35H671.95V383.1Z" fill="#F5F5F5" stroke="#E19B77" stroke-miterlimit="10"/>
<path d="M671.95 391.72H663.72V396.97H671.95V391.72Z" fill="#F5F5F5" stroke="#E19B77" stroke-miterlimit="10"/>
<path d="M671.95 417.57H663.72V422.82H671.95V417.57Z" fill="#F5F5F5" stroke="#E19B77" stroke-miterlimit="10"/>
<path d="M682.56 383.1H674.33V388.35H682.56V383.1Z" fill="#F5F5F5" stroke="#E19B77" stroke-miterlimit="10"/>
<path d="M682.56 391.72H674.33V396.97H682.56V391.72Z" fill="#F5F5F5" stroke="#E19B77" stroke-miterlimit="10"/>
<path d="M682.56 400.34H674.33V405.59H682.56V400.34Z" fill="#F5F5F5" stroke="#E19B77" stroke-miterlimit="10"/>
<path d="M682.56 408.96H674.33V414.21H682.56V408.96Z" fill="#F5F5F5" stroke="#E19B77" stroke-miterlimit="10"/>
<path d="M682.56 417.57H674.33V422.82H682.56V417.57Z" fill="#F5F5F5" stroke="#E19B77" stroke-miterlimit="10"/>
<path d="M654.85 73.13V117.65" stroke="#E19B77" stroke-width="0.75" stroke-miterlimit="10"/>
<path d="M104.1 394.96H54.1V423.21H104.1V394.96Z" fill="black" stroke="#E19B77" stroke-width="0.75" stroke-miterlimit="10"/>
<path d="M79.1 374.46L94.4 384.94L109.71 395.41H79.1H48.48L63.79 384.94L79.1 374.46Z" fill="black" stroke="#E19B77" stroke-width="0.75" stroke-miterlimit="10"/>
<path d="M97.02 407V404.37H86.79V407H97.02Z" fill="black" stroke="#E19B77" stroke-width="0.75" stroke-miterlimit="10"/>
<path d="M97.01 411.45V408.82H86.78V411.45H97.01Z" fill="black" stroke="#E19B77" stroke-width="0.75" stroke-miterlimit="10"/>
<path d="M97.02 415.91V413.28H86.79V415.91H97.02Z" fill="black" stroke="#E19B77" stroke-width="0.75" stroke-miterlimit="10"/>
<path d="M83.91 407V404.37H73.68V407H83.91Z" fill="black" stroke="#E19B77" stroke-width="0.75" stroke-miterlimit="10"/>
<path d="M83.91 411.46V408.83H73.68V411.46H83.91Z" fill="black" stroke="#E19B77" stroke-width="0.75" stroke-miterlimit="10"/>
<path d="M83.92 415.91V413.28H73.69V415.91H83.92Z" fill="black" stroke="#E19B77" stroke-width="0.75" stroke-miterlimit="10"/>
<path d="M71.4 407V404.37H61.17V407H71.4Z" fill="black" stroke="#E19B77" stroke-width="0.75" stroke-miterlimit="10"/>
<path d="M71.4 411.45V408.82H61.17V411.45H71.4Z" fill="black" stroke="#E19B77" stroke-width="0.75" stroke-miterlimit="10"/>
<path d="M71.4 415.91V413.28H61.17V415.91H71.4Z" fill="black" stroke="#E19B77" stroke-width="0.75" stroke-miterlimit="10"/>
<path d="M759.08 386.55H692.41V424.22H759.08V386.55Z" fill="black" stroke="#E19B77" stroke-width="0.75" stroke-miterlimit="10"/>
<path d="M725.74 359.22L746.16 373.19L766.57 387.16H725.74H684.92L705.33 373.19L725.74 359.22Z" fill="black" stroke="#E19B77" stroke-width="0.75" stroke-miterlimit="10"/>
<path d="M749.64 402.6V399.09H736V402.6H749.64Z" fill="black" stroke="#E19B77" stroke-width="0.75" stroke-miterlimit="10"/>
<path d="M749.64 408.55V405.04H736V408.55H749.64Z" fill="black" stroke="#E19B77" stroke-width="0.75" stroke-miterlimit="10"/>
<path d="M749.64 414.49V410.98H736V414.49H749.64Z" fill="black" stroke="#E19B77" stroke-width="0.75" stroke-miterlimit="10"/>
<path d="M732.17 402.6V399.09H718.53V402.6H732.17Z" fill="black" stroke="#E19B77" stroke-width="0.75" stroke-miterlimit="10"/>
<path d="M732.17 408.55V405.04H718.53V408.55H732.17Z" fill="black" stroke="#E19B77" stroke-width="0.75" stroke-miterlimit="10"/>
<path d="M732.17 414.49V410.98H718.53V414.49H732.17Z" fill="black" stroke="#E19B77" stroke-width="0.75" stroke-miterlimit="10"/>
<path d="M715.48 402.6V399.09H701.84V402.6H715.48Z" fill="black" stroke="#E19B77" stroke-width="0.75" stroke-miterlimit="10"/>
<path d="M715.48 408.54V405.03H701.84V408.54H715.48Z" fill="black" stroke="#E19B77" stroke-width="0.75" stroke-miterlimit="10"/>
<path d="M715.48 414.48V410.97H701.84V414.48H715.48Z" fill="black" stroke="#E19B77" stroke-width="0.75" stroke-miterlimit="10"/>
<path d="M356.69 204.59V254.47" stroke="#E19B77" stroke-width="0.75" stroke-miterlimit="10"/>
<path d="M364.13 226.02V253.22" stroke="#E19B77" stroke-width="0.75" stroke-miterlimit="10"/>
<path d="M328.4 251.55V382.82" stroke="#E19B77" stroke-width="0.75" stroke-miterlimit="10"/>
<path d="M327.8 252.25H336.12" stroke="#E19B77" stroke-width="0.75" stroke-miterlimit="10"/>
<path d="M327.8 255.75H336.12" stroke="#E19B77" stroke-width="0.75" stroke-miterlimit="10"/>
<path d="M327.8 259.26H336.12" stroke="#E19B77" stroke-width="0.75" stroke-miterlimit="10"/>
<path d="M327.8 262.77H336.12" stroke="#E19B77" stroke-width="0.75" stroke-miterlimit="10"/>
<path d="M327.8 266.27H336.12" stroke="#E19B77" stroke-width="0.75" stroke-miterlimit="10"/>
<path d="M327.8 269.78H336.12" stroke="#E19B77" stroke-width="0.75" stroke-miterlimit="10"/>
<path d="M327.8 273.28H336.12" stroke="#E19B77" stroke-width="0.75" stroke-miterlimit="10"/>
<path d="M327.8 276.79H336.12" stroke="#E19B77" stroke-width="0.75" stroke-miterlimit="10"/>
<path d="M327.8 280.3H336.12" stroke="#E19B77" stroke-width="0.75" stroke-miterlimit="10"/>
<path d="M327.8 283.8H336.12" stroke="#E19B77" stroke-width="0.75" stroke-miterlimit="10"/>
<path d="M327.8 287.31H336.12" stroke="#E19B77" stroke-width="0.75" stroke-miterlimit="10"/>
<path d="M327.8 290.82H336.12" stroke="#E19B77" stroke-width="0.75" stroke-miterlimit="10"/>
<path d="M327.8 294.32H336.12" stroke="#E19B77" stroke-width="0.75" stroke-miterlimit="10"/>
<path d="M327.8 297.83H336.12" stroke="#E19B77" stroke-width="0.75" stroke-miterlimit="10"/>
<path d="M327.8 301.33H336.12" stroke="#E19B77" stroke-width="0.75" stroke-miterlimit="10"/>
<path d="M327.8 304.84H336.12" stroke="#E19B77" stroke-width="0.75" stroke-miterlimit="10"/>
<path d="M327.8 308.35H336.12" stroke="#E19B77" stroke-width="0.75" stroke-miterlimit="10"/>
<path d="M327.8 311.85H336.12" stroke="#E19B77" stroke-width="0.75" stroke-miterlimit="10"/>
<path d="M327.8 315.36H336.12" stroke="#E19B77" stroke-width="0.75" stroke-miterlimit="10"/>
<path d="M327.8 318.87H336.12" stroke="#E19B77" stroke-width="0.75" stroke-miterlimit="10"/>
<path d="M327.8 322.37H336.12" stroke="#E19B77" stroke-width="0.75" stroke-miterlimit="10"/>
<path d="M327.8 325.88H336.12" stroke="#E19B77" stroke-width="0.75" stroke-miterlimit="10"/>
<path d="M327.8 329.38H336.12" stroke="#E19B77" stroke-width="0.75" stroke-miterlimit="10"/>
<path d="M327.8 332.89H336.12" stroke="#E19B77" stroke-width="0.75" stroke-miterlimit="10"/>
<path d="M327.8 336.4H336.12" stroke="#E19B77" stroke-width="0.75" stroke-miterlimit="10"/>
<path d="M327.8 339.9H336.12" stroke="#E19B77" stroke-width="0.75" stroke-miterlimit="10"/>
<path d="M327.8 343.41H336.12" stroke="#E19B77" stroke-width="0.75" stroke-miterlimit="10"/>
<path d="M327.8 346.92H336.12" stroke="#E19B77" stroke-width="0.75" stroke-miterlimit="10"/>
<path d="M327.8 350.42H336.12" stroke="#E19B77" stroke-width="0.75" stroke-miterlimit="10"/>
<path d="M327.8 353.93H336.12" stroke="#E19B77" stroke-width="0.75" stroke-miterlimit="10"/>
<path d="M327.8 357.43H336.12" stroke="#E19B77" stroke-width="0.75" stroke-miterlimit="10"/>
<path d="M327.8 360.94H336.12" stroke="#E19B77" stroke-width="0.75" stroke-miterlimit="10"/>
<path d="M327.8 364.45H336.12" stroke="#E19B77" stroke-width="0.75" stroke-miterlimit="10"/>
<path d="M327.8 367.95H336.12" stroke="#E19B77" stroke-width="0.75" stroke-miterlimit="10"/>
<path d="M327.8 371.46H336.12" stroke="#E19B77" stroke-width="0.75" stroke-miterlimit="10"/>
<path d="M327.8 374.97H336.12" stroke="#E19B77" stroke-width="0.75" stroke-miterlimit="10"/>
<path d="M327.8 378.47H336.12" stroke="#E19B77" stroke-width="0.75" stroke-miterlimit="10"/>
<path d="M327.8 381.98H336.12" stroke="#E19B77" stroke-width="0.75" stroke-miterlimit="10"/>
<path d="M377.69 252.55H335.69V331.44H377.69V252.55Z" fill="black" stroke="#E19B77" stroke-width="0.75" stroke-miterlimit="10"/>
<path d="M349.69 296.18H321.69V336.12H349.69V296.18Z" fill="black" stroke="#E19B77" stroke-width="0.75" stroke-miterlimit="10"/>
<path d="M377.69 321.22H321.69V426.69H377.69V321.22Z" fill="black" stroke="#E19B77" stroke-width="0.75" stroke-miterlimit="10"/>
<path d="M335.69 301.96H327.19V316.14H335.69V301.96Z" fill="black" stroke="#E19B77" stroke-width="0.75" stroke-miterlimit="10"/>
<path d="M371.19 259.93H352.19V268.35H371.19V259.93Z" fill="black" stroke="#E19B77" stroke-width="0.75" stroke-miterlimit="10"/>
<path d="M371.19 272.44H352.19V280.86H371.19V272.44Z" fill="black" stroke="#E19B77" stroke-width="0.75" stroke-miterlimit="10"/>
<path d="M371.19 284.31H352.19V292.73H371.19V284.31Z" fill="black" stroke="#E19B77" stroke-width="0.75" stroke-miterlimit="10"/>
<path d="M336.74 327.74H327.19V332.23H336.74V327.74Z" fill="#F5F5F5" stroke="#E19B77" stroke-miterlimit="10"/>
<path d="M336.74 335.12H327.19V339.61H336.74V335.12Z" fill="#F5F5F5" stroke="#E19B77" stroke-miterlimit="10"/>
<path d="M349.05 327.74H339.5V332.23H349.05V327.74Z" fill="#F5F5F5" stroke="#E19B77" stroke-miterlimit="10"/>
<path d="M349.05 335.12H339.5V339.61H349.05V335.12Z" fill="#F5F5F5" stroke="#E19B77" stroke-miterlimit="10"/>
<path d="M361.37 327.74H351.82V332.23H361.37V327.74Z" fill="#F5F5F5" stroke="#E19B77" stroke-miterlimit="10"/>
<path d="M361.37 335.12H351.82V339.61H361.37V335.12Z" fill="#F5F5F5" stroke="#E19B77" stroke-miterlimit="10"/>
<path d="M373.68 327.74H364.13V332.23H373.68V327.74Z" fill="#F5F5F5" stroke="#E19B77" stroke-miterlimit="10"/>
<path d="M373.68 335.12H364.13V339.61H373.68V335.12Z" fill="#F5F5F5" stroke="#E19B77" stroke-miterlimit="10"/>
<path d="M336.74 342.5H327.19V346.99H336.74V342.5Z" fill="#F5F5F5" stroke="#E19B77" stroke-miterlimit="10"/>
<path d="M336.74 349.88H327.19V354.37H336.74V349.88Z" fill="#F5F5F5" stroke="#E19B77" stroke-miterlimit="10"/>
<path d="M349.05 342.5H339.5V346.99H349.05V342.5Z" fill="#F5F5F5" stroke="#E19B77" stroke-miterlimit="10"/>
<path d="M349.05 349.88H339.5V354.37H349.05V349.88Z" fill="#F5F5F5" stroke="#E19B77" stroke-miterlimit="10"/>
<path d="M361.37 342.5H351.82V346.99H361.37V342.5Z" fill="#F5F5F5" stroke="#E19B77" stroke-miterlimit="10"/>
<path d="M361.37 349.88H351.82V354.37H361.37V349.88Z" fill="#F5F5F5" stroke="#E19B77" stroke-miterlimit="10"/>
<path d="M373.68 342.5H364.13V346.99H373.68V342.5Z" fill="#F5F5F5" stroke="#E19B77" stroke-miterlimit="10"/>
<path d="M373.68 349.88H364.13V354.37H373.68V349.88Z" fill="#F5F5F5" stroke="#E19B77" stroke-miterlimit="10"/>
<path d="M336.74 357.26H327.19V361.75H336.74V357.26Z" fill="#F5F5F5" stroke="#E19B77" stroke-miterlimit="10"/>
<path d="M336.74 364.65H327.19V369.14H336.74V364.65Z" fill="#F5F5F5" stroke="#E19B77" stroke-miterlimit="10"/>
<path d="M349.05 357.26H339.5V361.75H349.05V357.26Z" fill="#F5F5F5" stroke="#E19B77" stroke-miterlimit="10"/>
<path d="M349.05 364.65H339.5V369.14H349.05V364.65Z" fill="#F5F5F5" stroke="#E19B77" stroke-miterlimit="10"/>
<path d="M361.37 357.26H351.82V361.75H361.37V357.26Z" fill="#F5F5F5" stroke="#E19B77" stroke-miterlimit="10"/>
<path d="M361.37 364.65H351.82V369.14H361.37V364.65Z" fill="#F5F5F5" stroke="#E19B77" stroke-miterlimit="10"/>
<path d="M373.68 357.26H364.13V361.75H373.68V357.26Z" fill="#F5F5F5" stroke="#E19B77" stroke-miterlimit="10"/>
<path d="M373.68 364.65H364.13V369.14H373.68V364.65Z" fill="#F5F5F5" stroke="#E19B77" stroke-miterlimit="10"/>
<path d="M336.74 372.03H327.19V376.52H336.74V372.03Z" fill="#F5F5F5" stroke="#E19B77" stroke-miterlimit="10"/>
<path d="M336.74 379.41H327.19V383.9H336.74V379.41Z" fill="#F5F5F5" stroke="#E19B77" stroke-miterlimit="10"/>
<path d="M349.05 372.03H339.5V376.52H349.05V372.03Z" fill="#F5F5F5" stroke="#E19B77" stroke-miterlimit="10"/>
<path d="M349.05 379.41H339.5V383.9H349.05V379.41Z" fill="#F5F5F5" stroke="#E19B77" stroke-miterlimit="10"/>
<path d="M361.37 372.03H351.82V376.52H361.37V372.03Z" fill="#F5F5F5" stroke="#E19B77" stroke-miterlimit="10"/>
<path d="M361.37 379.41H351.82V383.9H361.37V379.41Z" fill="#F5F5F5" stroke="#E19B77" stroke-miterlimit="10"/>
<path d="M373.68 372.03H364.13V376.52H373.68V372.03Z" fill="#F5F5F5" stroke="#E19B77" stroke-miterlimit="10"/>
<path d="M373.68 379.41H364.13V383.9H373.68V379.41Z" fill="#F5F5F5" stroke="#E19B77" stroke-miterlimit="10"/>
<path d="M341.38 249.91H340.23V252.16H341.38V249.91Z" fill="black" stroke="#E19B77" stroke-width="0.75" stroke-miterlimit="10"/>
<path d="M345.49 238.17C348.2 240.88 348.2 245.27 345.49 247.97C342.78 250.67 338.39 250.68 335.69 247.97" fill="black"/>
<path d="M345.49 238.17C348.2 240.88 348.2 245.27 345.49 247.97C342.78 250.67 338.39 250.68 335.69 247.97" stroke="#E19B77" stroke-width="0.75" stroke-miterlimit="10"/>
<path d="M490.22 334.59H478.1V367.66H490.22V334.59Z" fill="black" stroke="#E19B77" stroke-width="0.75" stroke-miterlimit="10"/>
<path d="M542.27 373.61H475.6V427.39H542.27V373.61Z" fill="black" stroke="#E19B77" stroke-width="0.75" stroke-miterlimit="10"/>
<path d="M508.93 334.59L529.35 354.53L549.76 374.48H508.93H468.11L488.52 354.53L508.93 334.59Z" fill="black" stroke="#E19B77" stroke-width="0.75" stroke-miterlimit="10"/>
<path d="M532.64 382.18H527.73V409.42H532.64V382.18Z" fill="black" stroke="#E19B77" stroke-width="0.75" stroke-miterlimit="10"/>
<path d="M519.6 382.18H481.88V409.42H519.6V382.18Z" fill="black" stroke="#E19B77" stroke-width="0.75" stroke-miterlimit="10"/>
<path d="M333.99 406.54H321.61V419.92H333.99V406.54Z" fill="black" stroke="#E19B77" stroke-width="0.75" stroke-miterlimit="10"/>
<path d="M335.25 419.92H320.35V422.54H335.25V419.92Z" fill="black" stroke="#E19B77" stroke-width="0.75" stroke-miterlimit="10"/>
<path d="M327.8 414.79C328.662 414.79 329.36 414.092 329.36 413.23C329.36 412.368 328.662 411.67 327.8 411.67C326.938 411.67 326.24 412.368 326.24 413.23C326.24 414.092 326.938 414.79 327.8 414.79Z" fill="black" stroke="#E19B77" stroke-width="0.75" stroke-miterlimit="10"/>
<path d="M327.8 402.6C328.662 402.6 329.36 401.902 329.36 401.04C329.36 400.178 328.662 399.48 327.8 399.48C326.938 399.48 326.24 400.178 326.24 401.04C326.24 401.902 326.938 402.6 327.8 402.6Z" fill="black" stroke="#E19B77" stroke-width="0.75" stroke-miterlimit="10"/>
<path d="M335.99 409.23C335.99 404.71 332.32 401.04 327.8 401.04C323.28 401.04 319.61 404.71 319.61 409.23H335.99Z" fill="black" stroke="#E19B77" stroke-width="0.75" stroke-miterlimit="10"/>
<path d="M198.12 408.11H185.74V421.49H198.12V408.11Z" fill="black" stroke="#E19B77" stroke-width="0.75" stroke-miterlimit="10"/>
<path d="M199.37 421.49H184.47V424.11H199.37V421.49Z" fill="black" stroke="#E19B77" stroke-width="0.75" stroke-miterlimit="10"/>
<path d="M191.92 416.36C192.782 416.36 193.48 415.662 193.48 414.8C193.48 413.938 192.782 413.24 191.92 413.24C191.058 413.24 190.36 413.938 190.36 414.8C190.36 415.662 191.058 416.36 191.92 416.36Z" fill="black" stroke="#E19B77" stroke-width="0.75" stroke-miterlimit="10"/>
<path d="M191.92 404.17C192.782 404.17 193.48 403.472 193.48 402.61C193.48 401.748 192.782 401.05 191.92 401.05C191.058 401.05 190.36 401.748 190.36 402.61C190.36 403.472 191.058 404.17 191.92 404.17Z" fill="black" stroke="#E19B77" stroke-width="0.75" stroke-miterlimit="10"/>
<path d="M200.11 410.8C200.11 406.28 196.44 402.61 191.92 402.61C187.4 402.61 183.73 406.28 183.73 410.8H200.11Z" fill="black" stroke="#E19B77" stroke-width="0.75" stroke-miterlimit="10"/>
<path d="M167.24 392.43H164.36V423.68H167.24V392.43Z" fill="black" stroke="#E19B77" stroke-width="0.75" stroke-miterlimit="10"/>
<path d="M187.61 373.56C187.61 369.28 184.14 365.81 179.86 365.81C178.87 365.81 177.93 366 177.06 366.34C174.23 363.87 170.54 362.37 166.49 362.37C165.03 362.37 163.63 362.58 162.29 362.94C161.55 362.17 160.52 361.68 159.36 361.68C157.12 361.68 155.3 363.5 155.3 365.74C155.3 366.09 155.36 366.43 155.44 366.76C155.03 367.15 154.63 367.56 154.26 367.99C153.6 367.52 152.79 367.24 151.92 367.24C149.68 367.24 147.86 369.06 147.86 371.3C147.86 371.8 147.96 372.27 148.12 372.7C145.97 373.83 144.5 376.08 144.5 378.68C144.5 382.14 147.1 384.99 150.46 385.38C150.42 385.6 150.39 385.83 150.39 386.06C150.39 388.3 152.21 390.12 154.45 390.12C154.72 390.12 154.99 390.09 155.25 390.04C158.15 392.86 162.11 394.61 166.48 394.61C170.01 394.61 173.26 393.46 175.92 391.54C176.6 392.05 177.44 392.37 178.36 392.37C180.6 392.37 182.42 390.55 182.42 388.31C182.42 387.12 181.9 386.05 181.08 385.31C181.14 385.19 181.2 385.07 181.26 384.94C181.69 385.08 182.14 385.18 182.61 385.18C184.96 385.18 186.86 383.28 186.86 380.93C186.86 379.95 186.51 379.05 185.95 378.33C186.99 377.01 187.61 375.35 187.61 373.55V373.56Z" fill="black" stroke="#E19B77" stroke-width="0.75" stroke-miterlimit="10"/>
<path d="M751.23 393.02H748.35V424.27H751.23V393.02Z" fill="black" stroke="#E19B77" stroke-width="0.75" stroke-miterlimit="10"/>
<path d="M760.52 378.82C760.35 375.04 757.24 372.02 753.41 372.02C750.9 372.02 748.7 373.32 747.43 375.28C746.44 374.35 745.12 373.77 743.66 373.77C740.62 373.77 738.16 376.23 738.16 379.27C738.16 379.68 738.21 380.07 738.29 380.45C734.31 381.18 731.28 384.67 731.28 388.86C731.28 393.59 735.11 397.42 739.84 397.42C740 397.42 740.16 397.4 740.31 397.4C741.98 400.15 745.28 402.02 749.09 402.02C752.2 402.02 754.98 400.77 756.8 398.81C757.22 398.86 757.65 398.9 758.09 398.9C763.72 398.9 768.28 394.34 768.28 388.71C768.28 383.92 764.97 379.91 760.51 378.82H760.52Z" fill="black" stroke="#E19B77" stroke-width="0.75" stroke-miterlimit="10"/>
<path d="M764.62 405.51H762.86V424.6H764.62V405.51Z" fill="black" stroke="#E19B77" stroke-width="0.75" stroke-miterlimit="10"/>
<path d="M770.3 396.84C770.2 394.53 768.29 392.68 765.96 392.68C764.43 392.68 763.08 393.47 762.31 394.67C761.71 394.1 760.9 393.75 760.01 393.75C758.15 393.75 756.65 395.25 756.65 397.11C756.65 397.36 756.68 397.6 756.73 397.83C754.3 398.28 752.45 400.41 752.45 402.97C752.45 405.86 754.79 408.2 757.68 408.2C757.78 408.2 757.87 408.2 757.97 408.19C758.99 409.87 761.01 411.01 763.33 411.01C765.23 411.01 766.93 410.24 768.04 409.05C768.3 409.08 768.56 409.1 768.83 409.1C772.27 409.1 775.05 406.31 775.05 402.88C775.05 399.95 773.03 397.51 770.31 396.84H770.3Z" fill="black" stroke="#E19B77" stroke-width="0.75" stroke-miterlimit="10"/>
<path d="M293.05 391.8H290.17V423.05H293.05V391.8Z" fill="black" stroke="#E19B77" stroke-width="0.75" stroke-miterlimit="10"/>
<path d="M302.34 377.6C302.17 373.82 299.06 370.8 295.23 370.8C292.72 370.8 290.52 372.1 289.25 374.06C288.26 373.13 286.94 372.55 285.48 372.55C282.44 372.55 279.98 375.01 279.98 378.05C279.98 378.46 280.03 378.85 280.11 379.23C276.13 379.96 273.1 383.45 273.1 387.64C273.1 392.37 276.93 396.2 281.66 396.2C281.82 396.2 281.98 396.18 282.13 396.18C283.8 398.93 287.1 400.8 290.91 400.8C294.02 400.8 296.8 399.55 298.62 397.59C299.04 397.64 299.47 397.68 299.91 397.68C305.54 397.68 310.1 393.12 310.1 387.49C310.1 382.7 306.79 378.69 302.33 377.6H302.34Z" fill="black" stroke="#E19B77" stroke-width="0.75" stroke-miterlimit="10"/>
<path d="M306.44 404.3H304.68V423.39H306.44V404.3Z" fill="black" stroke="#E19B77" stroke-width="0.75" stroke-miterlimit="10"/>
<path d="M312.12 395.62C312.02 393.31 310.11 391.46 307.78 391.46C306.25 391.46 304.9 392.25 304.13 393.45C303.53 392.88 302.72 392.53 301.83 392.53C299.97 392.53 298.47 394.03 298.47 395.89C298.47 396.14 298.5 396.38 298.55 396.61C296.12 397.06 294.27 399.19 294.27 401.75C294.27 404.64 296.61 406.98 299.5 406.98C299.6 406.98 299.69 406.98 299.79 406.97C300.81 408.65 302.83 409.79 305.15 409.79C307.05 409.79 308.75 409.02 309.86 407.83C310.12 407.86 310.38 407.88 310.65 407.88C314.09 407.88 316.87 405.09 316.87 401.66C316.87 398.73 314.85 396.29 312.13 395.62H312.12Z" fill="black" stroke="#E19B77" stroke-width="0.75" stroke-miterlimit="10"/>
<path d="M466.17 395.34H463.29V426.59H466.17V395.34Z" fill="black" stroke="#E19B77" stroke-width="0.75" stroke-miterlimit="10"/>
<path d="M475.46 381.14C475.29 377.36 472.18 374.34 468.35 374.34C465.84 374.34 463.64 375.64 462.37 377.6C461.38 376.67 460.06 376.09 458.6 376.09C455.56 376.09 453.1 378.55 453.1 381.59C453.1 382 453.15 382.39 453.23 382.77C449.25 383.5 446.22 386.99 446.22 391.18C446.22 395.91 450.05 399.74 454.78 399.74C454.94 399.74 455.1 399.72 455.25 399.72C456.92 402.47 460.22 404.34 464.03 404.34C467.14 404.34 469.92 403.09 471.74 401.13C472.16 401.18 472.59 401.22 473.03 401.22C478.66 401.22 483.22 396.66 483.22 391.03C483.22 386.24 479.91 382.23 475.45 381.14H475.46Z" fill="black" stroke="#E19B77" stroke-width="0.75" stroke-miterlimit="10"/>
<path d="M479.56 407.83H477.8V426.92H479.56V407.83Z" fill="black" stroke="#E19B77" stroke-width="0.75" stroke-miterlimit="10"/>
<path d="M485.24 399.16C485.14 396.85 483.23 395 480.9 395C479.37 395 478.02 395.79 477.25 396.99C476.65 396.42 475.84 396.07 474.95 396.07C473.09 396.07 471.59 397.57 471.59 399.43C471.59 399.68 471.62 399.92 471.67 400.15C469.24 400.6 467.39 402.73 467.39 405.29C467.39 408.18 469.73 410.52 472.62 410.52C472.72 410.52 472.81 410.52 472.91 410.51C473.93 412.19 475.95 413.33 478.27 413.33C480.17 413.33 481.87 412.56 482.98 411.37C483.24 411.4 483.5 411.42 483.77 411.42C487.21 411.42 489.99 408.63 489.99 405.2C489.99 402.27 487.97 399.83 485.25 399.16H485.24Z" fill="black" stroke="#E19B77" stroke-width="0.75" stroke-miterlimit="10"/>
<path d="M800.38 444.25H0.380005V452.98H800.38V444.25Z" fill="black" stroke="#E19B77" stroke-width="0.75" stroke-miterlimit="10"/>
<path d="M782.01 434.53H23.34V443.26H782.01V434.53Z" fill="black" stroke="#E19B77" stroke-width="0.75" stroke-miterlimit="10"/>
<path d="M767.05 425.13H31.52V433.86H767.05V425.13Z" fill="black" stroke="#E19B77" stroke-width="0.75" stroke-miterlimit="10"/>
<path d="M619.44 402.38V423.84" stroke="#E19B77" stroke-width="0.75" stroke-miterlimit="10"/>
<path d="M619.44 403.12C622.765 403.12 625.46 400.425 625.46 397.1C625.46 393.775 622.765 391.08 619.44 391.08C616.115 391.08 613.42 393.775 613.42 397.1C613.42 400.425 616.115 403.12 619.44 403.12Z" fill="black" stroke="#E19B77" stroke-width="0.75" stroke-miterlimit="10"/>
<path d="M236.9 403.46V424.92" stroke="#E19B77" stroke-width="0.75" stroke-miterlimit="10"/>
<path d="M236.9 404.2C240.225 404.2 242.92 401.505 242.92 398.18C242.92 394.855 240.225 392.16 236.9 392.16C233.575 392.16 230.88 394.855 230.88 398.18C230.88 401.505 233.575 404.2 236.9 404.2Z" fill="black" stroke="#E19B77" stroke-width="0.75" stroke-miterlimit="10"/>
</g>
<defs>
<clipPath id="clip0_1_2">
<rect width="800.75" height="453.35" fill="white"/>
</clipPath>
</defs>
</svg>
